<svg width="180" height="180" viewBox="0 0 180 180" fill="none" xmlns="http://www.w3.org/2000/svg">
  <rect width="180" height="180" rx="42" fill="#080A0E"/>
  <rect x="4" y="4" width="172" height="172" rx="38" stroke="#E5F45C" stroke-opacity=".34" stroke-width="4"/>
  <path d="M39 57.5c14.9-15 43.2-21.5 66.8-10.8l-8.9 19.4c-14.4-6.2-31.4-3.8-41.1 6.1-6.6 6.6-5.1 14.2 5.2 17.7l28.9 9.4c26 8.6 36.2 29.5 20 46.8-16.3 17.2-49.1 20.8-73.4 6.6l10.3-18.6c16.3 9.1 36 8 45.7-1.7 6.6-6.6 4.6-14.6-6.1-18l-27.9-9.1C33.4 97.2 22.8 76.1 39 57.5Z" fill="#F8FAF4"/>
  <path d="M121 148 142.7 40h20.7l-21.7 108H121Z" fill="#E5F45C"/>
  <path d="M164 102v31h-13.6v-31H164Zm-22.8 8.8h31v13.6h-31v-13.6Z" fill="#66E3C4"/>
</svg>
