<svg width="64" height="64" viewBox="0 0 64 64" fill="none" xmlns="http://www.w3.org/2000/svg">
  <rect width="64" height="64" rx="16" fill="#080A0E"/>
  <rect x="1" y="1" width="62" height="62" rx="15" stroke="#E5F45C" stroke-opacity=".32" stroke-width="2"/>
  <path d="M14 20.4c5.2-5.3 15.1-7.5 23.4-3.8l-3.1 6.8c-5-2.2-11-1.3-14.4 2.1-2.3 2.3-1.8 5 1.8 6.2l10.1 3.3c9.1 3 12.7 10.3 7 16.4-5.7 6-17.2 7.3-25.7 2.3l3.6-6.5c5.7 3.2 12.6 2.8 16-.6 2.3-2.3 1.6-5.1-2.1-6.3l-9.8-3.2C12 34.2 8.3 26.8 14 20.4Z" fill="#F8FAF4"/>
  <path d="M42.9 52 50.5 14h7.3l-7.6 38h-7.3Z" fill="#E5F45C"/>
  <path d="M58 36v11h-4.8V36H58Zm-8 3.1h11v4.8H50v-4.8Z" fill="#66E3C4"/>
</svg>
